<svg id="Document" xmlns="http://www.w3.org/2000/svg" width="69.467" height="77.186" viewBox="0 0 69.467 77.186">
  <path id="Path" d="M50.908,0H18.563C6.831,0,0,6.87,0,18.64V58.507C0,70.47,6.831,77.186,18.563,77.186H50.908c11.921,0,18.559-6.715,18.559-18.679V18.64C69.467,6.87,62.829,0,50.908,0" fill="#47a98a" opacity="0.4"/>
  <path id="Combined_Shape" data-name="Combined Shape" d="M.461,39.749a3.077,3.077,0,0,1,0-3.241,3.03,3.03,0,0,1,2.9-1.428H33.614a3.048,3.048,0,0,1,0,6.058H3.358a2.824,2.824,0,0,1-.377.025A3.023,3.023,0,0,1,.461,39.749ZM3.358,23.5a3.013,3.013,0,0,1,0-6.026H33.614a3.013,3.013,0,0,1,0,6.026Zm0-17.447a3.01,3.01,0,1,1,0-6.019V0H14.893a3.029,3.029,0,0,1,0,6.058Z" transform="translate(16.248 17.946)" fill="#47a98a"/>
</svg>
