<svg id="Component_1_1" data-name="Component 1 – 1" xmlns="http://www.w3.org/2000/svg" width="20" height="19" viewBox="0 0 20 19">
  <path id="Fill_1" data-name="Fill 1" d="M0,4.446A4.526,4.526,0,0,1,4.591,0H9.624A4.515,4.515,0,0,1,14.2,4.436V15.552A4.526,4.526,0,0,1,9.613,20H4.581A4.517,4.517,0,0,1,0,15.562V4.446Z" transform="translate(20 4.796) rotate(90)" fill="purple" opacity="0.3"/>
  <path id="Fill_4" data-name="Fill 4" d="M13.537,3.134,10.569.225a.79.79,0,0,0-1.106,0,.762.762,0,0,0,0,1.089l1.625,1.593H.782a.77.77,0,1,0,0,1.54H11.091L9.465,6.043a.762.762,0,0,0,0,1.089.79.79,0,0,0,1.106,0l2.968-2.909a.761.761,0,0,0,0-1.091" transform="translate(13.68) rotate(90)" fill="purple"/>
</svg>
