<svg xmlns="http://www.w3.org/2000/svg" width="69.467" height="68.8" viewBox="0 0 69.467 68.8">
  <g id="Work" transform="translate(0 0)">
    <path id="Fill_1" data-name="Fill 1" d="M0,0C.174,8.125.66,22.022.73,23.554a16.161,16.161,0,0,0,3.454,8.924c2.718,3.277,6.064,4.74,10.731,4.74,6.45.035,13.56.035,20.465.035,6.933,0,13.661,0,19.342-.035,4.6,0,8.052-1.5,10.735-4.74a15.688,15.688,0,0,0,3.385-8.924c.07-1.289.417-16.375.626-23.554Z" transform="translate(0 31.547)" fill="purple" opacity="0.4"/>
    <path id="Fill_4" data-name="Fill 4" d="M0,2.606V7.1a2.606,2.606,0,1,0,5.213,0v-4.5A2.606,2.606,0,0,0,0,2.606" transform="translate(32.128 43.903)" fill="purple"/>
    <path id="Fill_6" data-name="Fill 6" d="M43.345,45.581a2.6,2.6,0,0,1-2.527-1.961,6.266,6.266,0,0,0-6.1-4.7,6.346,6.346,0,0,0-6.183,4.716,2.622,2.622,0,0,1-2.522,1.918,2.722,2.722,0,0,1-.352-.023,59.627,59.627,0,0,1-24.489-9.1A2.6,2.6,0,0,1,0,34.247V22.2A13.263,13.263,0,0,1,13.264,8.97H20.1A10.284,10.284,0,0,1,30.247,0H39.22A10.277,10.277,0,0,1,49.366,8.97h6.871A13.246,13.246,0,0,1,69.467,22.2V34.247A2.614,2.614,0,0,1,68.3,36.424a59.574,59.574,0,0,1-24.6,9.136A2.778,2.778,0,0,1,43.345,45.581ZM30.247,5.214A5.075,5.075,0,0,0,25.371,8.97H44.093A5.073,5.073,0,0,0,39.22,5.214Z" transform="translate(0 0)" fill="purple"/>
  </g>
</svg>
